# xmcd
#
# Track frame offsets:
#	150
#	12132
#	24732
#	39582
#	51284
#	69060
#	80820
#	96716
#	109916
#	123791
#	134589
#	146140
#	166246
#	176420
#
# Disc length: 2548 seconds
# Revision: 0
# Processed by: cddbd v1.5.2PL0 Copyright (c) Steve Scherf et al.
# Submitted via: dBpowerAMP V12.0
#
DISCID=c309f20e
DTITLE=Mark Kuykendall, Bobby Hicks and Asheville Bluegrass - Forever and a Day
DYEAR=2017
DGENRE=Country
TTITLE0=Roust-A-Bout
TTITLE1=I Don't Have The Want To Anymore
TTITLE2=Remember Me
TTITLE3=I'll Follow Jesus
TTITLE4=Ashokan Farewell
TTITLE5=We Live in Two Different Worlds
TTITLE6=Zuma Swing
TTITLE7=Journey's End
TTITLE8=Forever And A Day
TTITLE9=Mary Jane, Won't You Be Mine
TTITLE10=In His Arms I'm Not Afraid
TTITLE11=They'll Never Take Her Love From Me
TTITLE12=Sally, Don't You Grieve
TTITLE13=Wicked Path of Sin
EXTD=
EXTT0=
EXTT1=
EXTT2=
EXTT3=
EXTT4=
EXTT5=
EXTT6=
EXTT7=
EXTT8=
EXTT9=
EXTT10=
EXTT11=
EXTT12=
EXTT13=
PLAYORDER=
